<?xml version="1.0" encoding="UTF-8" standalone="no"?><!DOCTYPE svg PUBLIC "-//W3C//DTD SVG 1.1//EN" "http://www.w3.org/Graphics/SVG/1.1/DTD/svg11.dtd"><svg width="100%" height="100%" viewBox="0 0 312 205" version="1.1" xmlns="http://www.w3.org/2000/svg" xmlns:xlink="http://www.w3.org/1999/xlink" xml:space="preserve" style="fill-rule:evenodd;clip-rule:evenodd;stroke-linecap:square;stroke-miterlimit:1.5;"><g><path d="M307.463,15.89c0,-6.454 -5.241,-11.695 -11.696,-11.695l-153.681,0c-6.455,0 -11.696,5.241 -11.696,11.695l0,172.314c0,6.455 5.241,11.695 11.696,11.695l153.681,0c6.455,0 11.696,-5.24 11.696,-11.695l0,-172.314Z" style="fill:#748fae;"/><text x="196.669px" y="24.417px" style="font-family:'Inconsolata-Regular', 'Inconsolata';font-size:18px;">Frame</text><g><rect x="136.868" y="73.373" width="79.37" height="28.346" style="fill:#a9c3de;"/><text x="144.906px" y="92.362px" style="font-family:'Inconsolata-Regular', 'Inconsolata';font-size:14px;">Unit Cell</text></g><g><rect x="136.916" y="108.901" width="165.544" height="81.23" style="fill:#a9c3de;"/><text x="149.752px" y="126.371px" style="font-family:'Inconsolata-Regular', 'Inconsolata';font-size:14px;">Topology</text><g><g><rect x="141.12" y="137.376" width="70.866" height="48.143" style="fill:#c8d9ea;"/><text x="162.735px" y="150.973px" style="font-family:'Inconsolata-Regular', 'Inconsolata';font-size:14px;">Atom</text></g><g><rect x="148.207" y="159.938" width="56.693" height="17.008" style="fill:#cfe6c0;"/><text x="156.223px" y="170.517px" style="font-family:'Inconsolata-Regular', 'Inconsolata';font-size:10px;">Property</text></g></g><g><g><rect x="225.906" y="137.376" width="70.866" height="48.143" style="fill:#c8d9ea;"/><text x="237.021px" y="150.973px" style="font-family:'Inconsolata-Regular', 'Inconsolata';font-size:14px;">Residue</text></g><g><rect x="232.992" y="159.938" width="56.693" height="17.008" style="fill:#cfe6c0;"/><text x="241.009px" y="170.517px" style="font-family:'Inconsolata-Regular', 'Inconsolata';font-size:10px;">Property</text></g></g></g><g><rect x="225.987" y="114.434" width="70.879" height="17.008" style="fill:#c8d9ea;"/><text x="241.656px" y="126.305px" style="font-family:'Inconsolata-Regular', 'Inconsolata';font-size:14px;">bonds</text></g><g><rect x="223.09" y="73.373" width="79.37" height="28.346" style="fill:#a9c3de;"/><text x="227.929px" y="92.362px" style="font-family:'Inconsolata-Regular', 'Inconsolata';font-size:14px;">velocities</text></g><g><rect x="223.09" y="37.908" width="79.37" height="28.346" style="fill:#a9c3de;"/><text x="231.058px" y="54.972px" style="font-family:'Inconsolata-Regular', 'Inconsolata';font-size:14px;">positions</text></g><g><rect x="136.868" y="37.908" width="79.37" height="28.346" style="fill:#cfe6c0;"/><text x="148.336px" y="54.972px" style="font-family:'Inconsolata-Regular', 'Inconsolata';font-size:14px;">Property</text></g></g><g><path d="M104.877,144.314c0,-5.665 -4.6,-10.265 -10.266,-10.265l-70.123,0c-5.666,0 -10.265,4.6 -10.265,10.265l0,20.532c0,5.666 4.599,10.265 10.265,10.265l70.123,0c5.666,0 10.266,-4.599 10.266,-10.265l0,-20.532Z" style="fill:#cf8a7c;"/><text x="28.141px" y="157.457px" style="font-family:'Inconsolata-Regular', 'Inconsolata';font-size:14px;">Selection</text></g><g><path d="M104.877,39.249c0,-5.666 -4.6,-10.266 -10.266,-10.266l-70.123,0c-5.666,0 -10.265,4.6 -10.265,10.266l0,20.531c0,5.666 4.599,10.266 10.265,10.266l70.123,0c5.666,0 10.266,-4.6 10.266,-10.266l0,-20.531Z" style="fill:#76b5a8;"/><text x="24.641px" y="52.391px" style="font-family:'Inconsolata-Regular', 'Inconsolata';font-size:14px;">Trajectory</text></g><g><path d="M123.358,89.419l-2.532,3.611l7.221,-3.611l-7.221,-3.611l2.532,3.611Z" style="stroke:#000;stroke-width:0.24px;"/><path d="M60.394,75.537l-1.263,4.225l-1.645,-7.904l7.311,3.425l-4.403,0.254Z" style="stroke:#000;stroke-width:0.24px;"/><path d="M60.714,75.719c7.8,8.873 32.963,16.564 63.723,13.7" style="fill:none;stroke:#000;stroke-width:1px;stroke-linejoin:round;"/></g><g><path d="M123.358,115.018l-2.532,-3.611l7.221,3.611l-7.221,3.611l2.532,-3.611Z" style="stroke:#000;stroke-width:0.24px;"/><path d="M59.55,132.445c8.433,-13.731 34.127,-20.291 64.887,-17.427" style="fill:none;stroke:#000;stroke-width:1px;stroke-linejoin:round;"/></g></svg>